<svg viewBox="0 0 300 300" xmlns="http://www.w3.org/2000/svg">
  <!-- Background circle -->
  <circle cx="150" cy="150" r="145" fill="#f8f9fc" stroke="#6166c7" stroke-width="3"/>
  
  <!-- Stylized Rumi silhouette -->
  <path d="M150,40 
           C130,40 115,60 110,75 
           C105,90 103,110 100,125 
           C97,140 95,155 90,170 
           C85,185 75,200 75,215 
           C75,230 85,240 95,245 
           C105,250 120,250 135,250 
           C150,250 165,250 180,250 
           C195,250 210,250 220,245 
           C230,240 235,230 235,215 
           C235,200 225,185 220,170 
           C215,155 212,140 210,125 
           C208,110 205,90 200,75 
           C195,60 180,40 160,40 
           C155,40 151,40 150,40Z" 
        fill="#4a4eb1" opacity="0.2"/>
  
  <!-- Turban outline -->
  <path d="M150,70 
           C135,70 120,75 110,85 
           C100,95 95,105 95,115 
           C95,125 100,135 110,145 
           C120,155 135,160 150,160 
           C165,160 180,155 190,145 
           C200,135 205,125 205,115 
           C205,105 200,95 190,85 
           C180,75 165,70 150,70Z" 
        fill="#4a4eb1" opacity="0.5"/>
  
  <!-- Face outline -->
  <path d="M150,100 
           C140,100 130,105 125,115 
           C120,125 120,135 120,145 
           C120,155 120,165 125,175 
           C130,185 140,190 150,190 
           C160,190 170,185 175,175 
           C180,165 180,155 180,145 
           C180,135 180,125 175,115 
           C170,105 160,100 150,100Z" 
        fill="#e5b59f"/>
  
  <!-- Robe -->
  <path d="M125,190 
           C115,200 105,215 105,230 
           C105,245 115,255 130,255 
           C145,255 155,255 170,255 
           C185,255 195,245 195,230 
           C195,215 185,200 175,190 
           C170,195 160,200 150,200 
           C140,200 130,195 125,190Z" 
        fill="#4a4eb1" opacity="0.8"/>
  
  <!-- Beard -->
  <path d="M150,160 
           C140,160 135,165 130,170 
           C125,175 120,180 120,190 
           C125,195 140,200 150,200 
           C160,200 175,195 180,190 
           C180,180 175,175 170,170 
           C165,165 160,160 150,160Z" 
        fill="#2e3162" opacity="0.7"/>
  
  <!-- Eyes -->
  <ellipse cx="135" cy="130" rx="5" ry="3" fill="#2e3162"/>
  <ellipse cx="165" cy="130" rx="5" ry="3" fill="#2e3162"/>
  
  <!-- Decorative elements for turban -->
  <path d="M150,70 
           C140,70 130,75 125,85 
           C140,80 160,80 175,85 
           C170,75 160,70 150,70Z" 
        fill="#c86b4e" opacity="0.7"/>
  
  <!-- Decorative elements for robe -->
  <path d="M135,200 
           C135,210 135,220 135,230 
           C135,240 135,250 150,250 
           C165,250 165,240 165,230 
           C165,220 165,210 165,200 
           C160,203 155,205 150,205 
           C145,205 140,203 135,200Z" 
        fill="#4a4eb1"/>
  
  <!-- Calligraphic pen in hand -->
  <path d="M145,190 
           L155,220 
           L175,230 
           L185,220 
           L165,205 
           L155,190" 
        fill="#673326" opacity="0.8"/>
  
  <!-- Decorative bottom border with Persian motifs -->
  <path d="M70,245 
           Q90,255 110,250 
           Q130,245 150,250 
           Q170,255 190,250 
           Q210,245 230,250" 
        fill="none" stroke="#6166c7" stroke-width="2"/>
  
  <!-- Calligraphic elements suggesting poetry -->
  <path d="M50,275 Q100,280 150,275 Q200,270 250,275" 
        fill="none" stroke="#c86b4e" stroke-width="1.5" opacity="0.8"/>
  <path d="M75,265 Q125,270 175,265 Q225,260 235,265" 
        fill="none" stroke="#c86b4e" stroke-width="1.5" opacity="0.8"/>
</svg>
